#!OML:ASF F:\VICON\USERDATA\INSTALL\rory3\rory3.ASF
:FULLY-SPECIFIED
:DEGREES
100
root 0.480897276232513 17.666774265437198 60.40214156716164 -2.3656781740965154 1.5773905426149382 -3.296973168815494
lfemur -23.161316912284413 -2.994849471019032 -14.744703034460683
ltibia 48.98004587726233
lfoot -6.938105788724956 1.9168788416448104
ltoes -7.150958400376576
rfemur -8.783147379248518 0.4935589326200365 30.872374121240895
rtibia 29.92911638449749
rfoot -13.344572914619492 -5.098084625314912
rtoes 4.1628470712336085
lowerback 10.871282448454927 -0.6122813006276161 2.2879353817192767
upperback -0.13062751618507285 -0.4238007162666076 2.2195339037802766
thorax -6.145782197638956 -0.33872219675710563 0.6964380486549516
lowerneck -15.876521001969385 -3.16818186102164 -3.145065452707704
upperneck 22.106495165658647 -3.9740053414786765 1.7488938312061535
head 9.717250182943717 -1.8831820644781905 0.6860891353959768
lclavicle -2.0249568899417685e-15 -7.107946423187795e-16
lhumerus -34.96032941357103 5.967513186688167 81.24399860282294
lradius 24.58828493397282
lwrist 9.217538901316713
lhand -30.700831016907458 17.720632354723108
lfingers 7.12502
lthumb -3.8257592298091674 47.667017335783186
rclavicle -2.0282305485248638e-15 -7.128657104285996e-16
rhumerus -27.162529606231345 -18.47209342652167 -77.90144734599357
rradius 26.960113048347413
rwrist 3.0845851107170326
rhand -17.839857221753835 22.16114070659457
rfingers 7.12502
rthumb 8.05928082796914 -7.34592686297703
101
root 0.5041142356022574 17.638215733664836 60.78945585801883 -2.0863886531803395 1.4253957694603372 -3.0821053652183767
lfemur -22.725434642147825 -4.245596327502316 -14.272349853127071
ltibia 38.39966231203826
lfoot -7.169790718869519 2.8062665126666264
ltoes -7.579691100540001
rfemur -8.348163782910607 0.4720524217209603 30.332476364047835
rtibia 30.014388209819874
rfoot -12.523024151508187 -5.099709824943593
rtoes 2.415964468367222
lowerback 10.73319723142849 -0.4666567967711124 2.24429141339866
upperback -0.22646859430013108 -0.24568963952644735 2.132919925483779
thorax -6.08956250461302 -0.24652675603402957 0.48838171306966716
lowerneck -15.935569782579424 -3.1743368935957674 -3.107187807712196
upperneck 22.16073664800095 -4.004518168182156 1.746575478477067
head 9.723436008296325 -1.89578050733668 0.679330171305458
lclavicle -2.0262877803009323e-15 -7.116441517501595e-16
lhumerus -35.74185141732271 7.353974033941932 80.66345783807917
lradius 23.093038438431034
lwrist 8.603706905608075
lhand -30.45439493684017 17.969228306404183
lfingers 7.12502
lthumb -3.6143920868119923 47.684652698654325
rclavicle -2.0289840096958095e-15 -7.133468359325056e-16
rhumerus -26.775405465816892 -18.522871761644996 -77.9821052463494
rradius 27.148569035621115
rwrist 3.325352218224588
rhand -17.830951318834135 22.313146907060325
rfingers 7.12502
rthumb 8.008591005514422 -7.06463818277687
102
root 0.5346213910191915 17.631086705978692 61.23815101881086 -1.8309197976451 1.2590665682204936 -2.816015623319428
lfemur -22.105221678245442 -4.938504811684577 -14.169715134016572
ltibia 27.326108949894266
lfoot -7.706400732891016 4.243021558270527
ltoes -8.15301650129874
rfemur -8.511410030474245 0.40156350612228064 29.767145799234765
rtibia 31.32540369791019
rfoot -11.341015940044512 -4.96399550636686
rtoes 0.07233953270399995
lowerback 10.611736478270284 -0.35799255452906953 2.1582162803838054
upperback -0.32257841351141947 -0.15023133383156767 2.045372479719415
thorax -6.08602711090363 -0.18630746691722183 0.4223295815561524
lowerneck -16.03748950070879 -3.169469618612859 -3.0647739318209872
upperneck 22.21411883190541 -4.005304350137492 1.7626040408685384
head 9.730770366995346 -1.8967559154284033 0.680942476993792
lclavicle -2.026536856388309e-15 -7.118022917264674e-16
lhumerus -36.317560960979534 8.377706473472285 80.19973658630614
lradius 21.64752516253507
lwrist 7.72381274604734
lhand -30.106225878661395 18.331176860329506
lfingers 7.12502
lthumb -3.303168441648363 48.035232211779785
rclavicle -2.027738850185667e-15 -7.125517641612743e-16
rhumerus -26.483548689076855 -18.754347743364985 -77.97362204742892
rradius 26.846871543665443
rwrist 3.9003183500154694
rhand -17.81993430543652 22.426126725322412
rfingers 7.12502
rthumb 7.934552430220149 -6.973554919216159
103
root 0.5634754043424184 17.624927565526267 61.532852781602415 -1.7295410923101269 1.0500141969429149 -2.467347167454643
lfemur -21.524947701210323 -4.312500276603012 -15.072060032225988
ltibia 20.951459358713066
lfoot -8.144917015837098 4.649800543295402
ltoes -8.083225036861695
rfemur -9.29622754588631 0.2953713862901344 29.151819831429947
rtibia 33.76983542289009
rfoot -9.354108106169864 -4.577964350399396
rtoes -1.0591236912304938
lowerback 10.51025178548758 -0.23705770813011653 1.8638153113051354
upperback -0.36823584239131335 -0.08016064129771877 1.9383016071894223
thorax -6.010031564141839 -0.13417539661360967 0.5474797720096026
lowerneck -16.114802101870836 -3.1655782052810775 -3.0409152343036556
upperneck 22.24707400131902 -4.006157126133843 1.7507914257788206
head 9.72964381045601 -1.9024363541400737 0.6828345533167322
lclavicle -2.0273851843692316e-15 -7.123416925638516e-16
lhumerus -36.66536896608282 9.266068345031254 79.75524549949031
lradius 20.18775520002045
lwrist 6.628710370035041
lhand -29.682775176841815 18.928207732719617
lfingers 7.12502
lthumb -2.948147816261155 48.567769932518836
rclavicle -2.0278122253761097e-15 -7.125985746196591e-16
rhumerus -26.440720248233458 -19.099285941350654 -77.80733005132312
rradius 26.093495909103805
rwrist 4.699370056080325
rhand -17.760331225868715 22.549039671255894
rfingers 7.12502
rthumb 7.955482166091308 -6.749498402837949
